<svg width="118" height="36" viewBox="0 0 118 36" fill="none" xmlns="http://www.w3.org/2000/svg">
<g clip-path="url(#clip0)">
<path fill-rule="evenodd" clip-rule="evenodd" d="M13.6994 0.148926H23.2643C30.4162 0.148926 33.6439 6.28031 32.0235 13.0248C30.7403 18.3066 25.5768 21.4161 19.2001 21.4248L12.7008 21.4292L10.3578 30.3635H5.74609L13.6994 0.148926Z" fill="#2C0E9D"/>
<path d="M1.43652 9.18823H12.3942" stroke="#2C0E9D" stroke-width="2.87299" stroke-linecap="round" stroke-linejoin="round"/>
<path fill-rule="evenodd" clip-rule="evenodd" d="M13.6989 0.148926L11.4653 8.63214L14.8464 9.07009C14.8507 4.87885 22.5412 0.481772 24.6653 0.148926H13.6989Z" fill="#514AD1"/>
<path d="M7.92676 5.29053H13.3224" stroke="#514AD1" stroke-width="2.58394" stroke-linecap="round" stroke-linejoin="round"/>
<path d="M8.11951 5.4087C7.92089 5.4087 7.7304 5.3298 7.58995 5.18935C7.44951 5.0489 7.37061 4.85842 7.37061 4.65979C7.37061 4.46117 7.44951 4.27068 7.58995 4.13024C7.7304 3.98979 7.92089 3.91089 8.11951 3.91089H16.3137C16.5123 3.91089 16.7028 3.98979 16.8432 4.13024C16.9837 4.27068 17.0626 4.46117 17.0626 4.65979C17.0626 4.85842 16.9837 5.0489 16.8432 5.18935C16.7028 5.3298 16.5123 5.4087 16.3137 5.4087H8.11951Z" fill="white"/>
<path d="M73.5533 11.4653L57.4715 35.9996H52.8555L57.2307 29.3252L54.2657 11.4653H58.4525L60.5723 24.223L68.9372 11.4653H73.5533Z" fill="#2C0E9D"/>
<path d="M15.7137 8.15908C15.6774 8.26455 15.6203 8.36166 15.5458 8.44463C15.4712 8.5276 15.3808 8.59473 15.2798 8.64205C15.1788 8.68937 15.0693 8.7159 14.9579 8.72006C14.8464 8.72423 14.7352 8.70595 14.631 8.6663C14.5267 8.62666 14.4315 8.56646 14.351 8.48929C14.2705 8.41212 14.2063 8.31955 14.1623 8.21708C14.1182 8.1146 14.0952 8.00433 14.0947 7.8928C14.0941 7.78126 14.1159 7.67076 14.1589 7.56784C14.4655 6.77156 14.8576 6.01091 15.3283 5.29923C15.806 4.57385 16.3578 3.90015 16.975 3.28901L17.3166 2.96054C19.0281 1.33513 21.2214 0.309919 23.5662 0.0393724C24.6126 -0.0916634 25.6751 0.0142762 26.675 0.349352C27.6749 0.684428 28.5867 1.24006 29.3429 1.97514L29.5137 2.15032C29.6626 2.31237 29.8246 2.51382 29.991 2.72404C30.1487 2.92988 30.2845 3.11382 30.3983 3.28025C30.4607 3.36997 30.5049 3.4711 30.5282 3.57787C30.5515 3.68464 30.5536 3.79496 30.5342 3.90253C30.5149 4.0101 30.4746 4.11281 30.4156 4.20479C30.3566 4.29678 30.28 4.37624 30.1903 4.43864C30.1006 4.50104 29.9995 4.54516 29.8927 4.56848C29.7859 4.5918 29.6756 4.59386 29.568 4.57454C29.3508 4.53553 29.1579 4.41181 29.0319 4.23061C28.9137 4.05981 28.791 3.88901 28.6728 3.73134C28.5589 3.58682 28.4319 3.43353 28.2874 3.29339L28.1648 3.162C27.5807 2.59898 26.8776 2.17443 26.1075 1.91972C25.3373 1.66501 24.5197 1.58666 23.7151 1.69047C21.7399 1.93073 19.8958 2.80513 18.4597 4.18244L18.1618 4.46711C17.6248 4.99964 17.1449 5.58676 16.7297 6.21893C16.3274 6.83058 15.9926 7.48403 15.7312 8.16784L15.7137 8.15908ZM28.5064 11.8248C28.6022 11.6301 28.7703 11.4805 28.9748 11.408C29.1794 11.3354 29.4042 11.3457 29.6012 11.4365C29.7983 11.5273 29.9521 11.6916 30.0299 11.8942C30.1076 12.0968 30.1031 12.3218 30.0173 12.5211C29.4587 13.716 28.6699 14.789 27.6962 15.6788C26.3159 16.9486 24.6282 17.8362 22.7998 18.254C21.0443 18.6779 19.1983 18.5148 17.5443 17.7897C16.7041 17.4002 15.9494 16.8479 15.3239 16.1649C14.7599 15.5231 14.299 14.7977 13.9575 14.0146C13.625 13.2974 13.4261 12.5257 13.3706 11.7372C13.3751 11.5253 13.4603 11.3231 13.6088 11.1719C13.7573 11.0207 13.9579 10.9318 14.1696 10.9234C14.3814 10.9151 14.5884 10.9878 14.7483 11.1268C14.9083 11.2658 15.0092 11.4606 15.0305 11.6715C15.0753 12.2508 15.2236 12.8175 15.4684 13.3445C15.7279 13.9564 16.0794 14.525 16.5108 15.0306C16.9882 15.5518 17.5643 15.9731 18.2056 16.27C19.536 16.8478 21.0194 16.9724 22.4275 16.6248C23.9699 16.2666 25.3921 15.5117 26.5531 14.435C27.369 13.7014 28.0327 12.8145 28.5064 11.8248V11.8248Z" fill="white"/>
<path d="M20.2337 7.34888C20.1077 7.5295 19.9151 7.65265 19.6982 7.69125C19.4814 7.72986 19.2581 7.68074 19.0775 7.55472C18.8969 7.42869 18.7737 7.23608 18.7351 7.01925C18.6965 6.80241 18.7456 6.57913 18.8717 6.39851C19.1498 6.00313 19.4699 5.63897 19.8264 5.31238C20.6952 4.50555 21.7474 3.92234 22.8921 3.61311C23.4698 3.44092 24.0782 3.39756 24.6745 3.4861C25.2708 3.57463 25.8404 3.7929 26.3432 4.12552C26.5713 4.28465 26.7813 4.46822 26.9695 4.67296C27.4271 5.20877 27.752 5.84486 27.9178 6.52968C28.0837 7.21449 28.0859 7.92876 27.9242 8.61457C27.6061 10.1634 26.8276 11.58 25.6906 12.6788L25.4454 12.9153C24.4209 13.9107 23.1095 14.5588 21.6965 14.7679C21.0669 14.8596 20.4246 14.8037 19.8203 14.6045C19.2161 14.4054 18.6664 14.0685 18.2147 13.6204L18.1096 13.5109C17.8423 13.2204 17.6181 12.893 17.4439 12.5387C17.2709 12.173 17.1486 11.7855 17.0804 11.3868C17.0487 11.1742 17.1004 10.9576 17.2248 10.7824C17.3493 10.6071 17.5367 10.4867 17.7478 10.4465C17.959 10.4064 18.1775 10.4494 18.3576 10.5667C18.5377 10.6841 18.6654 10.8665 18.714 11.0759C18.7606 11.3219 18.8401 11.5606 18.9505 11.7854C19.0547 11.9977 19.1889 12.1938 19.349 12.3679L19.4103 12.4335C19.6869 12.6999 20.0215 12.8986 20.3877 13.0141C20.7539 13.1296 21.1419 13.1587 21.5213 13.0992C22.584 12.9297 23.5671 12.432 24.333 11.6759L24.53 11.4876C25.4155 10.6301 26.0241 9.52735 26.2775 8.32114C26.3874 7.89006 26.3956 7.43933 26.3013 7.00455C26.2071 6.56978 26.013 6.16289 25.7344 5.81603C25.6291 5.70015 25.5116 5.5959 25.3841 5.50508C25.0738 5.31312 24.7256 5.19062 24.3635 5.14602C24.0013 5.10141 23.6338 5.13576 23.2862 5.24669C22.4118 5.48876 21.6092 5.93965 20.9476 6.56056C20.6783 6.8039 20.436 7.07554 20.2249 7.37077" fill="white"/>
<path d="M15.1179 8.81177H9.62158V9.6614H15.1179V8.81177Z" fill="#2C0E9D"/>
<path d="M2.32969 9.3548H1.50195V7.69933H2.32969H14.829C15.1881 7.69933 15.6392 7.46283 15.9983 7.44531C15.7686 8.05627 15.6456 8.70217 15.6348 9.3548H14.8246H2.32969Z" fill="white"/>
<path fill-rule="evenodd" clip-rule="evenodd" d="M1.50645 7.69922C1.67016 7.69922 1.83019 7.74777 1.96631 7.83872C2.10244 7.92967 2.20853 8.05895 2.27118 8.21019C2.33383 8.36144 2.35022 8.52787 2.31828 8.68844C2.28634 8.849 2.20751 8.99649 2.09175 9.11226C1.97599 9.22802 1.8285 9.30685 1.66793 9.33879C1.50737 9.37073 1.34094 9.35434 1.18969 9.29169C1.03844 9.22904 0.909163 9.12294 0.81821 8.98682C0.727257 8.8507 0.678711 8.69067 0.678711 8.52696C0.678711 8.30743 0.765919 8.09689 0.92115 7.94166C1.07638 7.78643 1.28692 7.69922 1.50645 7.69922" fill="white"/>
<path d="M15.7926 9.79272H11.2598V11.6978H15.7926V9.79272Z" fill="#2C0E9D"/>
<path d="M3.49902 13.1912H12.0129" stroke="#2C0E9D" stroke-width="2.87299" stroke-linecap="round" stroke-linejoin="round"/>
<path fill-rule="evenodd" clip-rule="evenodd" d="M3.57383 11.6978C3.73754 11.6978 3.89758 11.7463 4.0337 11.8373C4.16982 11.9282 4.27591 12.0575 4.33856 12.2087C4.40121 12.36 4.4176 12.5264 4.38566 12.687C4.35373 12.8475 4.27489 12.995 4.15913 13.1108C4.04337 13.2266 3.89588 13.3054 3.73531 13.3373C3.57475 13.3693 3.40832 13.3529 3.25707 13.2902C3.10582 13.2276 2.97655 13.1215 2.88559 12.9854C2.79464 12.8492 2.74609 12.6892 2.74609 12.5255C2.74609 12.306 2.8333 12.0954 2.98853 11.9402C3.14376 11.785 3.3543 11.6978 3.57383 11.6978" fill="white"/>
<path d="M5.21143 17.2336H13.7253" stroke="#2C0E9D" stroke-width="2.87299" stroke-linecap="round" stroke-linejoin="round"/>
<path d="M3.56494 13.3576V11.7021C6.36348 11.7021 9.15764 11.7021 11.9562 11.7021C11.9782 12.1741 12.0501 12.6424 12.1708 13.0992V13.0992L3.56494 13.3576Z" fill="white"/>
<path d="M6.10501 17.3999H5.25537V15.7444H6.08311C8.83347 15.7444 10.4276 15.7444 13.1342 15.7444H13.178H13.3663C13.6224 16.1652 13.9156 16.5624 14.2422 16.9312L14.3079 17.0013L6.10501 17.3999Z" fill="white"/>
<path fill-rule="evenodd" clip-rule="evenodd" d="M5.28184 15.7444C5.44555 15.7444 5.60558 15.7929 5.7417 15.8839C5.87783 15.9748 5.98392 16.1041 6.04657 16.2554C6.10922 16.4066 6.12561 16.573 6.09367 16.7336C6.06173 16.8942 5.9829 17.0417 5.86714 17.1574C5.75138 17.2732 5.60389 17.352 5.44332 17.384C5.28276 17.4159 5.11633 17.3995 4.96508 17.3369C4.81383 17.2742 4.68455 17.1681 4.5936 17.032C4.50265 16.8959 4.4541 16.7358 4.4541 16.5721C4.4541 16.4634 4.47551 16.3558 4.51711 16.2554C4.55871 16.1549 4.61968 16.0637 4.69654 15.9868C4.7734 15.91 4.86465 15.849 4.96508 15.8074C5.0655 15.7658 5.17314 15.7444 5.28184 15.7444" fill="white"/>
<path fill-rule="evenodd" clip-rule="evenodd" d="M45.0915 23.6911C45.121 23.647 45.1504 23.6025 45.1796 23.5575C46.5811 21.3984 47.1767 18.302 45.5431 16.4144C44.746 15.4831 43.603 15.0232 42.1139 15.0349C38.2949 15.0612 35.5446 18.1925 35.1329 21.8013C34.7957 24.7181 36.4117 26.8685 39.438 26.8509L39.4424 26.8466C41.6559 26.8466 43.3683 25.9487 44.7068 24.2245C44.8386 24.0551 44.9668 23.8773 45.0915 23.6911ZM52.6944 11.4818H48.5864L47.8857 14.1226C47.2375 12.3139 44.7806 11 42.4813 11C38.7849 11 35.2068 13.1547 33.0346 16.365C30.5076 20.0832 30.1134 24.7387 32.4171 28.1066C33.6784 29.9416 35.5528 30.8788 38.0579 30.8788C40.493 30.8788 42.1835 29.9766 44.1324 28.3474L43.6068 30.4015H47.7981L52.6944 11.4818Z" fill="#2C0E9D"/>
<path d="M103.546 15.7009C104.387 15.329 105.297 15.138 106.217 15.1403C106.874 15.1202 107.528 15.2272 108.144 15.4556C108.709 15.6759 109.214 16.025 109.62 16.4751C110.026 16.9252 110.322 17.4639 110.483 18.0483C110.65 18.6912 110.693 19.3601 110.61 20.0191C110.519 20.8709 110.294 21.703 109.944 22.4848C109.583 23.2825 109.103 24.0208 108.521 24.6746C107.934 25.3484 107.203 25.8826 106.383 26.2381C105.518 26.6005 104.589 26.7866 103.651 26.7856C102.998 26.8062 102.348 26.6991 101.737 26.4702C101.183 26.2549 100.691 25.9059 100.305 25.4542C99.9093 24.9979 99.6272 24.4547 99.4813 23.8688C99.3252 23.218 99.2881 22.5444 99.3718 21.8804C99.4626 21.0611 99.6828 20.2614 100.024 19.5111C100.389 18.7194 100.862 17.9823 101.43 17.3213C102.003 16.6322 102.723 16.08 103.537 15.7053L103.546 15.7009ZM109.366 11.387C108.608 11.2035 107.829 11.1181 107.049 11.133C105.652 11.147 104.269 11.4264 102.976 11.9564C101.612 12.5299 100.354 13.3311 99.258 14.3257C96.9536 16.3108 95.5027 19.1074 95.2069 22.1345C95.0575 23.2975 95.1259 24.4782 95.4083 25.6162C95.6682 26.6269 96.1634 27.5619 96.8536 28.3447C97.5387 29.126 98.4048 29.7274 99.3762 30.0965C100.49 30.4971 101.67 30.6829 102.854 30.644C104.318 30.6343 105.768 30.3567 107.132 29.825C109.863 28.7057 112.124 26.6795 113.535 24.0877C114.19 22.8363 114.602 21.4721 114.748 20.0673C114.847 19.244 114.847 18.4118 114.748 17.5885C114.653 16.8343 114.453 16.0972 114.153 15.3987C113.871 14.7353 113.487 14.1205 113.014 13.5768C112.546 13.0535 111.996 12.6098 111.385 12.2629C110.759 11.8726 110.079 11.5774 109.366 11.387V11.387Z" fill="#514AD1"/>
<path d="M80.6022 7.31827L75.6314 26.1986H78.8854C85.4767 26.1986 89.3964 23.1329 90.3161 16.2482C91.0825 10.4102 88.9365 7.31827 83.4095 7.31827H80.6022ZM77.0986 3.14893H82.446C86.3394 3.14893 88.3146 3.58688 90.1716 4.46279C94.3935 6.47739 95.6635 11.4175 95.0548 16.0686C94.411 20.9913 91.7394 26.4132 86.9482 28.7694C84.8066 29.8248 82.8664 30.3504 79.3102 30.3504H69.9336L77.0986 3.14893Z" fill="#514AD1"/>
</g>
<defs>
<clipPath id="clip0">
<rect width="117.819" height="36" fill="white"/>
</clipPath>
</defs>
</svg>
